<?xml version="1.0" encoding="UTF-8"?>
<svg id="Layer_2" xmlns="http://www.w3.org/2000/svg" xmlns:xlink="http://www.w3.org/1999/xlink" viewBox="0 0 389 149">
  <defs>
    <style>
      .cls-1 {
        fill: #eb670a;
      }

      .cls-2 {
        fill: #fff;
        filter: url(#drop-shadow-1);
      }
    </style>
    <filter id="drop-shadow-1" filterUnits="userSpaceOnUse">
      <feOffset dx="3.95" dy="3.95"/>
      <feGaussianBlur result="blur" stdDeviation="2.82"/>
      <feFlood flood-color="#000" flood-opacity=".25"/>
      <feComposite in2="blur" operator="in"/>
      <feComposite in="SourceGraphic"/>
    </filter>
  </defs>
  <g id="Capa_1">
    <path class="cls-2" d="M372.86,12.49c.31.32-7.98-1.81-6.23-2.43-4.13.88-4.87-1.81-5.69-2.18-1.6-1.82-7.27,1.53-7.53-.99,1.96-1.63-6.77-2.25-7.15-.22-2,2.48-6.18-.32-6.85.98-4.03.12-2.04.55-2.61,2.31-3.77,1.96,2.43,4.38-2.7,2.47-.99,3.19-9.8,3.3-8.09,1.76-4.17-.8-6.31.41-8.61-.67.69-1.17-9.37.96-8.89-1.21-4.09,1.71-7.48.87-8.92.13-5.93-2-5.2,5.44-8.56,1.47-3.36.27-2.32.97-8.58,1.52-3.68-2.64-2.89,1.72-8.57,1.41-2.33-1.04-3.03,3.06-8.53,1.13-4.11.31-6.48.92-7.92-.57-2.4-.09-5.56-2-6.53-2.67,2.31-1.03-4.25.04-6.81-3.2-1.6-3.01-7.09-4.83-6.8-1.46-4.4.42-2.94-4.84-5.88.63-2.36,4.85,1.04,1.85-6.92.94.83,2.96-7.46,5.06-7.61-.99.43-1.89-2.34-2.61-6.74-2.57-1.5-.37-1.18-2.64-6.84-2.02-3.59,1.12-5.86.31-9.1-.37-1.45-.83-10.31.4-9.48.44,2.43,6.01-9.13.39-7.5,1.43-2.28,1.77-15.18,4.18-7.39,2.92,1.22,4.11-4.21,1.77-7.37,3.3-5.44-4.32,2.11,3.85-7.44,2.57-.62,1.65-5.52.72-7.33.97-4.03,2.27-1.79-3.69-7.59.39-1.87-2.03-6,3.82-7.41,1.17-5.71,5.34-3.45,5.4-4.74,1.94-.72,1.31-5.86-1.69-5,1.21-.8-.62-5.55,1.63-8.84-1.19-4.36-1.18-2.13-4.12-9.2-1.32-2.76-2.53-9.33.25-10.62.4-3.04-.82-7.69-1.62-10.59.63-2.47.05-4.92,2.92-10.59.33-9.68,2.52-9.72-4.99-10.63-.49-.15,1.26-9.18-3.82-7.52-2.03,1.47.67-2.6,1.19-6.6-3.34,2.56-3.41-5.36,2.59-6.82-3.02-.46-2.67-8.55,3.72-7.11-.87-3.65,2.49-1.59,1.11-6.85,1,5.39-1.8-4.22-2.24-7.51,1.09-4.59,2.78-5.66-.58-7.98.28-.92-1.92-4.25.55-6.95.88v111.46c.47.06.93.11,1.35.18,4.83,4.68,7.39.81,7.08-.09-.64-1.56,4.68,3.16,5.15,2.87-1.21,3.19,6.15-1.36,5.72,2.61,1.39-1.01,3.52,1.3,6.18.72,4.04.06-.23-1.17,5.99.88,3.31-.51.46.16,6.57.85,1.29-.68,3.81-.53,5.08-.62-.16-.25,3.86-2.33,7.11-1.87-.78-1.96.8-2.18,6.11-.98,5.33-3.88.53.9,6.26-.17,3.94-3.45,3.48-1.78,6.34-.4,4.63-.35,9.74-2.33,10.33-2.86-.61.1-1.29.2-2.12.35,1.8-.55,2.38-.58,2.12-.35,2.07-.35,3.18-.74,5.57-3.3.67-2.73,4.51-.79,8.41-2.54,2.74-1.42,7.7-3.12,6.7-.21-3.38,3.54,10.48,7.24,6.87.71,7.22,2.43,3.81,2.17,6.55,1.08,10.98-2.33,4.53,2.62,7.87,2.5,13.95,1.76-2.69-.07,6.66,3.4,1.52-7.08,5.97,3.44,7.14,2.81,1.8,2,6.56-1.25,9.31.93,3.67-.83,9.65,1.54,10.01-1.05,9.53.16,7.39-.66,9.81-2.16,3.39-2.05,8.5-2.68,8.7-2.41,1.19-.57,6.25,1.66,6.6-2.2,1.94.16,4.48-1.75,6.43-1.92,3.34-2,1.83,1.23,7.44-.68,1.65,3.11,12.25,2.65,8.27.84,4.33-.07,8.32.92,6.38,1.87,2.56-.56,5.4,2.37,6.12,4.37,1.28,3.78,3.33,2.24,5.95,2.15,3.16,1.8,3.13-.55,6.08,1.78,4.02,1.63,6.12,2.06,8.26,1.87,2.02-.4,2.58-1.87,8.56-1.84,3.93-4.5,2.01-3.41,7.41-.2,7.97,2.88,5.19-.67,7.35,1.13,4.39-.38,1.99,3.2,7.12.59,2.2,2.56,5.45-2.49,9.03-1.3,2.74,6.36,4.06-.15,9.71-2.45,6.97,1.91,9.31.38,8.63-2.47-1.96-.56,4.64-.11,8.28-2.87,7.08,1.86.94-.63,8.29-3.46,3.58-1.79,6.05-.16,8.36-3.29,5.73-1.01,6.58-3.7,8.48-2.38,3.28-2.63,6.69-2.1,8.67-.71,6.88,6.51,10.82.88,10.08,1.17,2.52-1.23,4.62.26,9.59,2.03.33,5.49,7.6.77,9.5,2.03,5.07-.09,5.69.16,7.2.59V12.2c-.89.09-1.86.19-2.94.3Z"/>
    <g>
      <path class="cls-1" d="M97.34,50.64c0-9.09,6.25-14.26,13.51-14.26,4,0,6.92,1.67,8.84,3.58l-3.75,4.59c-1.33-1.17-2.67-2-4.84-2-3.67,0-6.42,2.92-6.42,7.84s2.25,7.92,7.09,7.92c.75,0,1.58-.17,2.08-.5v-3.75h-4v-5.84h10.34v12.92c-1.92,1.83-5.34,3.33-9.17,3.33-7.59,0-13.67-4.59-13.67-13.84Z"/>
      <path class="cls-1" d="M125.44,36.89h17.51v6h-10.34v4.25h8.84v6h-8.84v4.84h10.75v6h-17.93v-27.1Z"/>
      <path class="cls-1" d="M148.62,36.89h10.25c5.84,0,10.84,2,10.84,8.75s-5,9.25-10.84,9.25h-3.08v9.09h-7.17v-27.1ZM158.37,49.23c2.83,0,4.34-1.25,4.34-3.58s-1.5-3.08-4.34-3.08h-2.58v6.67h2.58ZM157.58,53.02l4.84-4.75,8.8,15.72h-8l-5.63-10.96Z"/>
      <path class="cls-1" d="M174.88,36.89h17.51v6h-10.34v4.25h8.84v6h-8.84v4.84h10.75v6h-17.93v-27.1Z"/>
      <path class="cls-1" d="M198.05,36.89h7.34l6,12.09,2.58,6.09h.17c-.33-2.92-.92-7-.92-10.34v-7.84h6.84v27.1h-7.34l-6-12.13-2.58-6.04h-.17c.33,3.08.92,7,.92,10.34v7.84h-6.84v-27.1Z"/>
      <path class="cls-1" d="M224.9,50.64c0-9.09,6.25-14.26,13.09-14.26,3.59,0,6.5,1.67,8.42,3.58l-3.75,4.59c-1.33-1.17-2.67-2-4.5-2-3.17,0-5.92,2.92-5.92,7.84s2.33,7.92,5.84,7.92c2.08,0,3.75-1.08,4.92-2.33l3.75,4.5c-2.29,2.67-5.42,4-8.92,4-6.92,0-12.92-4.59-12.92-13.84Z"/>
      <path class="cls-1" d="M250.49,36.89h7.17v27.1h-7.17v-27.1Z"/>
      <path class="cls-1" d="M268.5,36.89h8.67l8.25,27.1h-7.59l-3.08-13.17c-.67-2.58-1.33-5.88-2-8.59h-.17c-.58,2.75-1.25,6-1.92,8.59l-3.08,13.17h-7.34l8.25-27.1ZM266.16,52.69h13.26v5.54h-13.26v-5.54Z"/>
    </g>
    <g>
      <path class="cls-1" d="M97.12,83.74c0-7.9,5.44-12.39,11.38-12.39,3.12,0,5.65,1.45,7.32,3.12l-3.26,3.99c-1.16-1.01-2.32-1.74-3.91-1.74-2.75,0-5.15,2.54-5.15,6.81s2.03,6.89,5.07,6.89c1.81,0,3.26-.94,4.28-2.03l3.26,3.91c-1.99,2.32-4.71,3.48-7.76,3.48-6.02,0-11.23-3.99-11.23-12.03Z"/>
      <path class="cls-1" d="M116.9,83.45c0-7.76,4.42-12.1,10.94-12.1s10.94,4.39,10.94,12.1-4.42,12.32-10.94,12.32-10.94-4.57-10.94-12.32ZM132.41,83.45c0-4.28-1.74-6.74-4.57-6.74s-4.57,2.46-4.57,6.74,1.74,6.96,4.57,6.96,4.57-2.68,4.57-6.96Z"/>
      <path class="cls-1" d="M142.99,71.78h6.67l3.55,9.64c.44,1.3.8,2.75,1.23,4.13h.15c.43-1.38.8-2.83,1.23-4.13l3.41-9.64h6.67v23.56h-5.65v-6.96c0-2.39.51-6.05.8-8.41h-.15l-1.96,5.65-2.9,7.79h-3.33l-2.9-7.79-1.88-5.65h-.15c.29,2.36.8,6.02.8,8.41v6.96h-5.58v-23.56Z"/>
      <path class="cls-1" d="M171.11,71.78h15.22v5.22h-8.99v3.7h7.68v5.22h-7.68v4.2h9.35v5.22h-15.58v-23.56Z"/>
      <path class="cls-1" d="M191.26,71.78h8.92c5.07,0,9.42,1.74,9.42,7.61s-4.35,8.04-9.42,8.04h-2.68v7.9h-6.23v-23.56ZM199.74,82.5c2.46,0,3.77-1.09,3.77-3.12s-1.3-2.68-3.77-2.68h-2.25v5.8h2.25ZM199.05,85.8l4.2-4.13,7.65,13.66h-6.96l-4.89-9.53Z"/>
      <path class="cls-1" d="M213.07,83.74c0-7.9,5.44-12.39,11.38-12.39,3.12,0,5.65,1.45,7.32,3.12l-3.26,3.99c-1.16-1.01-2.32-1.74-3.91-1.74-2.75,0-5.15,2.54-5.15,6.81s2.03,6.89,5.07,6.89c1.81,0,3.26-.94,4.28-2.03l3.26,3.91c-1.99,2.32-4.71,3.48-7.76,3.48-6.02,0-11.23-3.99-11.23-12.03Z"/>
      <path class="cls-1" d="M235.32,71.78h6.23v23.56h-6.23v-23.56Z"/>
      <path class="cls-1" d="M250.98,71.78h7.54l7.18,23.56h-6.6l-2.68-11.45c-.58-2.25-1.16-5.11-1.74-7.47h-.14c-.51,2.39-1.09,5.22-1.67,7.47l-2.68,11.45h-6.38l7.18-23.56ZM248.95,85.51h11.52v4.82h-11.52v-4.82Z"/>
      <path class="cls-1" d="M267.57,71.78h6.23v18.34h8.92v5.22h-15.15v-23.56Z"/>
    </g>
  </g>
</svg>