<?xml version="1.0" encoding="UTF-8"?>
<svg id="Layer_2" xmlns="http://www.w3.org/2000/svg" viewBox="0 0 95.15 93.18">
  <defs>
    <style>
      .cls-1 {
        fill: #2580c3;
      }

      .cls-2 {
        fill: #fff;
      }

      .cls-3 {
        fill: #f6a505;
      }
    </style>
  </defs>
  <g id="Capa_1">
    <g>
      <g>
        <path class="cls-3" d="M80.81,14.34c-6.79-6.79-16.05-11.09-26.33-11.46v37.78h37.79c-.37-10.27-4.67-19.53-11.46-26.33Z"/>
        <path class="cls-2" d="M53.06,0c-.37,0-.74.15-1.01.42-.26.26-.42.63-.42,1.01v40.67c0,.37.15.74.42,1.01.26.26.63.42,1.01.42h40.67c.37,0,.74-.15,1.01-.42.26-.26.42-.63.42-1.01C95.15,18.84,76.3,0,53.06,0ZM54.48,2.88c10.27.37,19.53,4.67,26.33,11.46,6.79,6.79,11.09,16.05,11.46,26.33h-37.79V2.88Z"/>
      </g>
      <path class="cls-2" d="M94.74,48.11c-.26-.26-.63-.42-1.01-.42h-40.67c-.58,0-1.09.35-1.31.88-.22.53-.1,1.14.31,1.55l28.76,28.76c.56.56,1.46.56,2.01,0,7.62-7.61,12.33-18.15,12.33-29.76,0-.37-.15-.74-.42-1.01ZM81.79,75.84l-25.3-25.3h35.77c-.35,9.77-4.26,18.61-10.48,25.3Z"/>
      <g>
        <path class="cls-1" d="M40.67,51.09V11.88c-10.27.37-19.53,4.67-26.33,11.46-7.1,7.11-11.49,16.91-11.49,27.75,0,10.84,4.39,20.65,11.49,27.75,7.11,7.1,16.91,11.49,27.75,11.49,10.33,0,19.71-3.99,26.72-10.51l-27.73-27.72c-.26-.26-.42-.63-.42-1.01Z"/>
        <path class="cls-2" d="M71.86,78.84l-28.34-28.34V10.42c0-.37-.15-.74-.42-1.01-.26-.26-.63-.42-1.01-.42C18.84,9,0,27.84,0,51.09c0,23.25,18.84,42.09,42.09,42.09,11.62,0,22.15-4.72,29.76-12.33.26-.26.42-.63.42-1.01s-.15-.74-.42-1.01ZM42.09,90.33c-10.84,0-20.65-4.39-27.75-11.49-7.1-7.11-11.49-16.91-11.49-27.75,0-10.84,4.39-20.64,11.49-27.75,6.79-6.79,16.05-11.09,26.33-11.46v39.21c0,.37.15.74.42,1.01l27.73,27.72c-7.01,6.52-16.39,10.51-26.72,10.51Z"/>
      </g>
      <path class="cls-2" d="M57.78,20.11h1.96c.37,0,.67-.3.67-.67s-.3-.67-.67-.67h-1.96c-.37,0-.67.3-.67.67s.3.67.67.67"/>
      <path class="cls-2" d="M62.93,20.11h1.96c.37,0,.67-.3.67-.67s-.3-.67-.67-.67h-1.96c-.37,0-.67.3-.67.67s.3.67.67.67"/>
      <path class="cls-2" d="M57.78,16.71h1.96c.37,0,.67-.3.67-.67s-.3-.67-.67-.67h-1.96c-.37,0-.67.3-.67.67s.3.67.67.67"/>
      <path class="cls-2" d="M62.93,16.71h1.96c.37,0,.67-.3.67-.67s-.3-.67-.67-.67h-1.96c-.37,0-.67.3-.67.67s.3.67.67.67"/>
      <path class="cls-2" d="M57.78,23.18h1.96c.37,0,.67-.3.67-.67s-.3-.67-.67-.67h-1.96c-.37,0-.67.3-.67.67s.3.67.67.67"/>
      <path class="cls-2" d="M62.93,23.18h1.96c.37,0,.67-.3.67-.67s-.3-.67-.67-.67h-1.96c-.37,0-.67.3-.67.67s.3.67.67.67"/>
      <path class="cls-2" d="M57.78,26.68h1.96c.37,0,.67-.3.67-.67s-.3-.67-.67-.67h-1.96c-.37,0-.67.3-.67.67s.3.67.67.67"/>
      <path class="cls-2" d="M62.93,26.68h1.96c.37,0,.67-.3.67-.67s-.3-.67-.67-.67h-1.96c-.37,0-.67.3-.67.67s.3.67.67.67"/>
      <path class="cls-2" d="M57.78,30h1.96c.37,0,.67-.3.67-.67s-.3-.67-.67-.67h-1.96c-.37,0-.67.3-.67.67s.3.67.67.67"/>
      <path class="cls-2" d="M62.93,30h1.96c.37,0,.67-.3.67-.67s-.3-.67-.67-.67h-1.96c-.37,0-.67.3-.67.67s.3.67.67.67"/>
      <path class="cls-2" d="M57.78,34.1h1.96c.37,0,.67-.3.67-.67s-.3-.67-.67-.67h-1.96c-.37,0-.67.3-.67.67s.3.67.67.67"/>
      <path class="cls-2" d="M62.93,34.1h1.96c.37,0,.67-.3.67-.67s-.3-.67-.67-.67h-1.96c-.37,0-.67.3-.67.67s.3.67.67.67"/>
      <path class="cls-2" d="M57.78,38.28h1.96c.37,0,.67-.3.67-.67s-.3-.67-.67-.67h-1.96c-.37,0-.67.3-.67.67s.3.67.67.67"/>
      <path class="cls-2" d="M62.93,38.28h1.96c.37,0,.67-.3.67-.67s-.3-.67-.67-.67h-1.96c-.37,0-.67.3-.67.67s.3.67.67.67"/>
      <path class="cls-2" d="M67.71,38.28h1.96c.37,0,.67-.3.67-.67s-.3-.67-.67-.67h-1.96c-.37,0-.67.3-.67.67s.3.67.67.67"/>
      <path class="cls-2" d="M72.87,38.28h1.96c.37,0,.67-.3.67-.67s-.3-.67-.67-.67h-1.96c-.37,0-.67.3-.67.67s.3.67.67.67"/>
      <path class="cls-2" d="M78.09,38.28h1.96c.37,0,.67-.3.67-.67s-.3-.67-.67-.67h-1.96c-.37,0-.67.3-.67.67s.3.67.67.67"/>
      <path class="cls-2" d="M67.68,34.1h1.96c.37,0,.67-.3.67-.67s-.3-.67-.67-.67h-1.96c-.37,0-.67.3-.67.67s.3.67.67.67"/>
      <path class="cls-2" d="M72.83,34.1h1.96c.37,0,.67-.3.67-.67s-.3-.67-.67-.67h-1.96c-.37,0-.67.3-.67.67s.3.67.67.67"/>
      <path class="cls-2" d="M78.06,34.1h1.96c.37,0,.67-.3.67-.67s-.3-.67-.67-.67h-1.96c-.37,0-.67.3-.67.67s.3.67.67.67"/>
      <path class="cls-2" d="M67.68,30h1.96c.37,0,.67-.3.67-.67s-.3-.67-.67-.67h-1.96c-.37,0-.67.3-.67.67s.3.67.67.67"/>
      <path class="cls-2" d="M72.83,30h1.96c.37,0,.67-.3.67-.67s-.3-.67-.67-.67h-1.96c-.37,0-.67.3-.67.67s.3.67.67.67"/>
      <path class="cls-2" d="M78.06,30h1.96c.37,0,.67-.3.67-.67s-.3-.67-.67-.67h-1.96c-.37,0-.67.3-.67.67s.3.67.67.67"/>
      <path class="cls-2" d="M67.68,26.68h1.96c.37,0,.67-.3.67-.67s-.3-.67-.67-.67h-1.96c-.37,0-.67.3-.67.67s.3.67.67.67"/>
      <path class="cls-2" d="M72.83,26.68h1.96c.37,0,.67-.3.67-.67s-.3-.67-.67-.67h-1.96c-.37,0-.67.3-.67.67s.3.67.67.67"/>
      <path class="cls-2" d="M78.06,26.68h1.96c.37,0,.67-.3.67-.67s-.3-.67-.67-.67h-1.96c-.37,0-.67.3-.67.67s.3.67.67.67"/>
      <path class="cls-2" d="M67.64,23.18h1.96c.37,0,.67-.3.67-.67s-.3-.67-.67-.67h-1.96c-.37,0-.67.3-.67.67s.3.67.67.67"/>
      <path class="cls-2" d="M72.8,23.18h1.96c.37,0,.67-.3.67-.67s-.3-.67-.67-.67h-1.96c-.37,0-.67.3-.67.67s.3.67.67.67"/>
      <path class="cls-2" d="M78.02,23.18h1.96c.37,0,.67-.3.67-.67s-.3-.67-.67-.67h-1.96c-.37,0-.67.3-.67.67s.3.67.67.67"/>
      <path class="cls-2" d="M67.61,16.71h1.96c.37,0,.67-.3.67-.67s-.3-.67-.67-.67h-1.96c-.37,0-.67.3-.67.67s.3.67.67.67"/>
      <path class="cls-2" d="M67.64,20.11h1.96c.37,0,.67-.3.67-.67s-.3-.67-.67-.67h-1.96c-.37,0-.67.3-.67.67s.3.67.67.67"/>
      <path class="cls-2" d="M72.8,20.11h1.96c.37,0,.67-.3.67-.67s-.3-.67-.67-.67h-1.96c-.37,0-.67.3-.67.67s.3.67.67.67"/>
      <path class="cls-2" d="M57.78,13.48h1.96c.37,0,.67-.3.67-.67s-.3-.67-.67-.67h-1.96c-.37,0-.67.3-.67.67s.3.67.67.67"/>
      <path class="cls-2" d="M14.15,50.98h6.36c.58,0,1.05-.47,1.05-1.05s-.47-1.05-1.05-1.05h-6.36c-.58,0-1.05.47-1.05,1.05s.47,1.05,1.05,1.05"/>
      <path class="cls-2" d="M14.15,57.68h12.54c.58,0,1.05-.47,1.05-1.05s-.47-1.05-1.05-1.05h-12.54c-.58,0-1.05.47-1.05,1.05s.47,1.05,1.05,1.05"/>
      <path class="cls-2" d="M14.15,63.35h3.18c.58,0,1.05-.47,1.05-1.05s-.47-1.05-1.05-1.05h-3.18c-.58,0-1.05.47-1.05,1.05s.47,1.05,1.05,1.05"/>
      <path class="cls-2" d="M21.71,63.35h12.54c.58,0,1.05-.47,1.05-1.05s-.47-1.05-1.05-1.05h-12.54c-.58,0-1.05.47-1.05,1.05s.47,1.05,1.05,1.05"/>
    </g>
  </g>
</svg>