<?xml version="1.0" encoding="UTF-8"?>
<svg id="Layer_2" xmlns="http://www.w3.org/2000/svg" xmlns:xlink="http://www.w3.org/1999/xlink" viewBox="0 0 399 152">
  <defs>
    <style>
      .cls-1 {
        fill: #2580c3;
      }

      .cls-2 {
        fill: #fff;
        filter: url(#drop-shadow-1);
      }
    </style>
    <filter id="drop-shadow-1" filterUnits="userSpaceOnUse">
      <feOffset dx="3.95" dy="3.95"/>
      <feGaussianBlur result="blur" stdDeviation="2.82"/>
      <feFlood flood-color="#000" flood-opacity=".25"/>
      <feComposite in2="blur" operator="in"/>
      <feComposite in="SourceGraphic"/>
    </filter>
  </defs>
  <g id="Capa_1">
    <g>
      <path class="cls-2" d="M383.38,11.97c.32.33-8.22-1.86-6.41-2.5-4.25.9-5.02-1.86-5.87-2.24-1.65-1.87-7.49,1.58-7.76-1.02,2.02-1.68-6.98-2.32-7.37-.23-2.06,2.55-6.37-.33-7.05,1.01-4.15.12-2.11.56-2.68,2.38-3.89,2.01,2.51,4.51-2.78,2.55-1.02,3.29-10.09,3.4-8.34,1.81-4.3-.82-6.5.42-8.87-.69.71-1.2-9.65.99-9.16-1.25-4.22,1.76-7.71.89-9.19.13-6.11-2.06-5.36,5.6-8.82,1.51-3.46.28-2.39,1-8.84,1.57-3.79-2.72-2.97,1.77-8.83,1.46-2.4-1.07-3.12,3.15-8.79,1.17-4.23.32-6.68.94-8.16-.59-2.47-.09-5.73-2.06-6.73-2.75,2.38-1.06-4.37.04-7.02-3.3-1.65-3.1-7.31-4.97-7-1.5-4.53.43-3.02-4.99-6.06.65-2.43,5,1.07,1.91-7.13.97.86,3.05-7.68,5.22-7.84-1.02.45-1.95-2.41-2.69-6.95-2.65-1.54-.38-1.22-2.72-7.05-2.08-3.7,1.15-6.04.32-9.38-.38-1.49-.85-10.63.41-9.76.45,2.5,6.19-9.41.4-7.73,1.47-2.35,1.82-15.64,4.31-7.62,3.01,1.26,4.23-4.33,1.82-7.6,3.4-5.61-4.45,2.18,3.96-7.67,2.64-.64,1.7-5.68.74-7.55,1-4.15,2.34-1.84-3.8-7.82.4-1.93-2.09-6.18,3.93-7.63,1.2-5.89,5.5-3.56,5.56-4.88,2-.74,1.35-6.04-1.74-5.15,1.25-.83-.64-5.72,1.68-9.11-1.23-4.49-1.22-2.2-4.24-9.47-1.36-2.85-2.61-9.61.26-10.94.41-3.13-.84-7.92-1.66-10.91.65-2.54.05-5.07,3.01-10.91.34-9.97,2.6-10.01-5.14-10.95-.5-.15,1.3-9.46-3.94-7.75-2.09,1.52.69-2.68,1.23-6.8-3.44,2.64-3.52-5.52,2.66-7.02-3.11-.47-2.75-8.81,3.83-7.33-.9-3.76,2.56-1.63,1.14-7.06,1.03,5.55-1.86-4.35-2.31-7.74,1.12-4.73,2.87-5.83-.59-8.22.29-.95-1.98-4.38.56-7.16.91v114.83c.49.06.96.12,1.39.18,4.98,4.82,7.62.83,7.29-.09-.66-1.61,4.82,3.25,5.3,2.96-1.24,3.29,6.34-1.4,5.9,2.69,1.43-1.04,3.63,1.34,6.36.74,4.16.07-.23-1.2,6.17.9,3.41-.53.47.17,6.77.88,1.33-.7,3.92-.55,5.24-.64-.17-.26,3.98-2.4,7.33-1.92-.81-2.02.83-2.24,6.29-1.01,5.49-4,.55.92,6.45-.18,4.06-3.55,3.59-1.83,6.53-.41,4.77-.36,10.04-2.4,10.64-2.95-.63.11-1.33.21-2.19.36,1.86-.56,2.45-.6,2.19-.36,2.13-.36,3.28-.76,5.74-3.4.69-2.81,4.65-.82,8.66-2.61,2.82-1.46,7.93-3.21,6.9-.22-3.48,3.65,10.8,7.46,7.08.73,7.44,2.5,3.93,2.23,6.75,1.11,11.32-2.4,4.67,2.7,8.11,2.58,14.37,1.81-2.77-.07,6.86,3.5,1.56-7.3,6.15,3.54,7.36,2.89,1.85,2.06,6.76-1.29,9.59.96,3.78-.86,9.95,1.59,10.31-1.08,9.82.17,7.61-.68,10.1-2.22,3.49-2.11,8.75-2.76,8.96-2.48,1.23-.58,6.44,1.71,6.8-2.27,2,.17,4.61-1.8,6.62-1.98,3.44-2.07,1.89,1.26,7.66-.7,1.7,3.2,12.62,2.73,8.52.86,4.46-.07,8.57.94,6.57,1.93,2.64-.58,5.56,2.44,6.3,4.5,1.32,3.89,3.43,2.31,6.13,2.21,3.26,1.85,3.22-.56,6.26,1.84,4.14,1.67,6.3,2.12,8.51,1.93,2.09-.42,2.66-1.92,8.82-1.89,4.04-4.64,2.07-3.51,7.64-.21,8.21,2.97,5.35-.69,7.58,1.16,4.52-.4,2.05,3.3,7.33.61,2.26,2.64,5.61-2.57,9.3-1.34,2.83,6.56,4.18-.15,10-2.52,7.18,1.97,9.59.39,8.89-2.55-2.02-.58,4.78-.11,8.53-2.96,7.3,1.92.97-.65,8.54-3.56,3.69-1.85,6.24-.17,8.61-3.39,5.9-1.04,6.78-3.81,8.74-2.45,3.38-2.71,6.9-2.16,8.93-.73,7.08,6.71,11.14.91,10.38,1.2,2.6-1.27,4.76.27,9.88,2.09.34,5.65,7.83.79,9.79,2.1,5.23-.09,5.86.16,7.41.6V11.66c-.91.09-1.92.2-3.03.31Z"/>
      <g>
        <path class="cls-1" d="M46.03,46.89c0-5.34,3.67-8.38,7.93-8.38,2.35,0,4.07.98,5.19,2.11l-2.2,2.69c-.78-.69-1.57-1.18-2.84-1.18-2.15,0-3.77,1.71-3.77,4.6s1.32,4.65,4.16,4.65c.44,0,.93-.1,1.22-.29v-2.2h-2.35v-3.43h6.07v7.59c-1.13,1.08-3.13,1.96-5.39,1.96-4.46,0-8.03-2.69-8.03-8.13Z"/>
        <path class="cls-1" d="M62.54,38.81h10.29v3.53h-6.07v2.5h5.19v3.53h-5.19v2.84h6.32v3.53h-10.53v-15.92Z"/>
        <path class="cls-1" d="M76.16,38.81h6.03c3.43,0,6.37,1.18,6.37,5.14s-2.94,5.44-6.37,5.44h-1.81v5.34h-4.21v-15.92ZM81.89,46.06c1.67,0,2.55-.73,2.55-2.11s-.88-1.81-2.55-1.81h-1.52v3.92h1.52ZM81.43,48.29l2.84-2.79,5.17,9.23h-4.7l-3.31-6.44Z"/>
        <path class="cls-1" d="M91.59,38.81h10.29v3.53h-6.07v2.5h5.19v3.53h-5.19v2.84h6.32v3.53h-10.53v-15.92Z"/>
        <path class="cls-1" d="M105.21,38.81h4.31l3.53,7.1,1.52,3.58h.1c-.2-1.71-.54-4.11-.54-6.07v-4.6h4.02v15.92h-4.31l-3.53-7.13-1.52-3.55h-.1c.2,1.81.54,4.11.54,6.07v4.6h-4.02v-15.92Z"/>
        <path class="cls-1" d="M120.98,46.89c0-5.34,3.67-8.38,7.69-8.38,2.11,0,3.82.98,4.95,2.11l-2.2,2.69c-.78-.69-1.57-1.18-2.64-1.18-1.86,0-3.48,1.71-3.48,4.6s1.37,4.65,3.43,4.65c1.22,0,2.2-.64,2.89-1.37l2.2,2.65c-1.35,1.57-3.18,2.35-5.24,2.35-4.07,0-7.59-2.69-7.59-8.13Z"/>
        <path class="cls-1" d="M136.02,38.81h4.21v15.92h-4.21v-15.92Z"/>
        <path class="cls-1" d="M146.6,38.81h5.09l4.85,15.92h-4.46l-1.81-7.74c-.39-1.52-.78-3.45-1.18-5.05h-.1c-.34,1.62-.73,3.53-1.13,5.05l-1.81,7.74h-4.31l4.85-15.92ZM145.23,48.09h7.79v3.26h-7.79v-3.26Z"/>
        <path class="cls-1" d="M165.56,38.81h5.09l4.85,15.92h-4.46l-1.81-7.74c-.39-1.52-.78-3.45-1.18-5.05h-.1c-.34,1.62-.73,3.53-1.13,5.05l-1.81,7.74h-4.31l4.85-15.92ZM164.19,48.09h7.79v3.26h-7.79v-3.26Z"/>
        <path class="cls-1" d="M176.78,38.81h4.7c4.85,0,8.18,2.25,8.18,7.89s-3.33,8.03-7.93,8.03h-4.95v-15.92ZM181.23,51.35c2.3,0,4.11-.93,4.11-4.65s-1.81-4.51-4.11-4.51h-.25v9.16h.25Z"/>
        <path class="cls-1" d="M192.5,38.81h4.51l2.4,6.51c.29.88.54,1.86.83,2.79h.1c.29-.93.54-1.91.83-2.79l2.3-6.51h4.51v15.92h-3.82v-4.7c0-1.62.34-4.09.54-5.68h-.1l-1.32,3.82-1.96,5.27h-2.25l-1.96-5.27-1.27-3.82h-.1c.2,1.59.54,4.07.54,5.68v4.7h-3.77v-15.92Z"/>
        <path class="cls-1" d="M211.51,38.81h4.21v15.92h-4.21v-15.92Z"/>
        <path class="cls-1" d="M219.25,38.81h4.31l3.53,7.1,1.52,3.58h.1c-.2-1.71-.54-4.11-.54-6.07v-4.6h4.02v15.92h-4.31l-3.53-7.13-1.52-3.55h-.1c.2,1.81.54,4.11.54,6.07v4.6h-4.02v-15.92Z"/>
        <path class="cls-1" d="M235.71,38.81h4.21v15.92h-4.21v-15.92Z"/>
        <path class="cls-1" d="M242.47,52.74l2.4-2.89c1.13.91,2.55,1.54,3.72,1.54,1.27,0,1.81-.42,1.81-1.13,0-.76-.81-1-2.16-1.54l-1.98-.83c-1.71-.69-3.21-2.13-3.21-4.43,0-2.72,2.45-4.95,5.93-4.95,1.81,0,3.82.69,5.29,2.13l-2.11,2.65c-1.08-.76-2.01-1.15-3.18-1.15-1.03,0-1.67.37-1.67,1.08,0,.76.91,1.03,2.35,1.59l1.93.76c1.98.78,3.11,2.15,3.11,4.36,0,2.69-2.25,5.09-6.22,5.09-2.01,0-4.31-.73-6.02-2.28Z"/>
        <path class="cls-1" d="M259.81,42.34h-4.21v-3.53h12.64v3.53h-4.21v12.39h-4.21v-12.39Z"/>
        <path class="cls-1" d="M270.59,38.81h6.02c3.43,0,6.37,1.18,6.37,5.14s-2.94,5.44-6.37,5.44h-1.81v5.34h-4.21v-15.92ZM276.32,46.06c1.67,0,2.55-.73,2.55-2.11s-.88-1.81-2.55-1.81h-1.52v3.92h1.52ZM275.85,48.29l2.84-2.79,5.17,9.23h-4.7l-3.31-6.44Z"/>
        <path class="cls-1" d="M288.61,38.81h5.09l4.85,15.92h-4.46l-1.81-7.74c-.39-1.52-.78-3.45-1.18-5.05h-.1c-.34,1.62-.74,3.53-1.13,5.05l-1.81,7.74h-4.31l4.85-15.92ZM287.24,48.09h7.79v3.26h-7.79v-3.26Z"/>
        <path class="cls-1" d="M301.15,42.34h-4.21v-3.53h12.64v3.53h-4.21v12.39h-4.21v-12.39Z"/>
        <path class="cls-1" d="M311.93,38.81h4.21v15.92h-4.21v-15.92Z"/>
        <path class="cls-1" d="M317.66,38.81h4.46l1.67,6.96c.44,1.69.74,3.33,1.18,5.04h.1c.44-1.71.76-3.35,1.17-5.04l1.62-6.96h4.31l-4.7,15.92h-5.09l-4.7-15.92Z"/>
        <path class="cls-1" d="M336.03,38.81h5.09l4.85,15.92h-4.46l-1.81-7.74c-.39-1.52-.78-3.45-1.18-5.05h-.1c-.34,1.62-.73,3.53-1.13,5.05l-1.81,7.74h-4.31l4.85-15.92ZM334.66,48.09h7.79v3.26h-7.79v-3.26Z"/>
      </g>
      <g>
        <path class="cls-1" d="M54.89,84.45l-9.53-20.72h8.95l2.33,6.62c.78,2.38,1.56,4.57,2.38,7.05h.2c.83-2.48,1.65-4.67,2.48-7.05l2.33-6.62h8.76l-9.53,20.72v10.9h-8.37v-10.9Z"/>
        <path class="cls-1" d="M84.08,63.73h20.63v7h-12.26v6.03h10.51v7h-10.51v11.58h-8.37v-31.62Z"/>
        <path class="cls-1" d="M110.15,63.73h8.37v31.62h-8.37v-31.62Z"/>
        <path class="cls-1" d="M125.53,63.73h8.56l7,14.11,3.02,7.1h.19c-.39-3.41-1.07-8.17-1.07-12.06v-9.15h7.98v31.62h-8.56l-7-14.16-3.02-7.05h-.19c.39,3.6,1.07,8.17,1.07,12.06v9.15h-7.98v-31.62Z"/>
        <path class="cls-1" d="M163.86,63.73h10.12l9.63,31.62h-8.85l-3.6-15.37c-.78-3.02-1.56-6.86-2.33-10.02h-.19c-.68,3.21-1.46,7-2.24,10.02l-3.6,15.37h-8.56l9.63-31.62ZM161.14,82.16h15.47v6.47h-15.47v-6.47Z"/>
        <path class="cls-1" d="M186.15,63.73h8.56l7,14.11,3.02,7.1h.19c-.39-3.41-1.07-8.17-1.07-12.06v-9.15h7.98v31.62h-8.56l-7-14.16-3.02-7.05h-.19c.39,3.6,1.07,8.17,1.07,12.06v9.15h-7.98v-31.62Z"/>
        <path class="cls-1" d="M217.48,79.78c0-10.6,7.3-16.64,15.27-16.64,4.18,0,7.59,1.95,9.83,4.18l-4.38,5.35c-1.56-1.36-3.11-2.33-5.25-2.33-3.7,0-6.91,3.4-6.91,9.15s2.72,9.24,6.81,9.24c2.43,0,4.38-1.26,5.74-2.72l4.38,5.25c-2.68,3.11-6.32,4.67-10.41,4.67-8.08,0-15.08-5.35-15.08-16.15Z"/>
        <path class="cls-1" d="M247.35,63.73h8.37v31.62h-8.37v-31.62Z"/>
        <path class="cls-1" d="M262.73,63.73h20.43v7h-12.06v4.96h10.31v7h-10.31v5.64h12.55v7h-20.92v-31.62Z"/>
        <path class="cls-1" d="M289.78,63.73h11.97c6.81,0,12.65,2.33,12.65,10.22s-5.84,10.8-12.65,10.8h-3.6v10.6h-8.37v-31.62ZM301.16,78.13c3.31,0,5.06-1.46,5.06-4.18s-1.75-3.6-5.06-3.6h-3.02v7.78h3.02ZM300.23,82.55l5.64-5.55,10.26,18.34h-9.34l-6.57-12.79Z"/>
        <path class="cls-1" d="M325.58,63.73h10.12l9.63,31.62h-8.85l-3.6-15.37c-.78-3.02-1.56-6.86-2.33-10.02h-.19c-.68,3.21-1.46,7-2.24,10.02l-3.6,15.37h-8.56l9.63-31.62ZM322.86,82.16h15.47v6.47h-15.47v-6.47Z"/>
      </g>
    </g>
  </g>
</svg>