<?xml version="1.0" encoding="UTF-8"?>
<svg xmlns="http://www.w3.org/2000/svg" viewBox="0 0 447.25 585.48">
  <defs>
    <style>
      .cls-1 {
        fill: #efa26f;
      }

      .cls-2 {
        fill: #4da2da;
      }

      .cls-3 {
        fill: #2b488b;
      }

      .cls-4 {
        fill: #fad1b5;
      }

      .cls-5 {
        fill: #d28154;
      }

      .cls-6 {
        fill: #f8be96;
      }

      .cls-7 {
        fill: #f3f7fc;
      }

      .cls-8 {
        isolation: isolate;
      }

      .cls-9 {
        fill: #f39548;
      }

      .cls-10 {
        fill: #1b2a4f;
        mix-blend-mode: multiply;
        opacity: .66;
      }

      .cls-11 {
        fill: #f6b07e;
      }
    </style>
  </defs>
  <g class="cls-8">
    <g id="Layer_2">
      <g id="Capa_1">
        <g>
          <path class="cls-1" d="M342.6,264.23s-33.95,67.91-68.43,114.8c-13.72,18.66-27.53,33.98-39.31,40.37-11.53,6.25-21.3,15.97-29.38,26.74-20.93,27.88-30.58,62.78-30.58,62.78l-88.18-133.41s3.01-130.41,13.6-152.22c15.43-31.79,22.89-96.02,28.81-108.8,4.4-9.49,16.96-58.48,18.16-62.08.52-1.55,4.7-3.93,10.13-3.93,4.36,0,11.75,4.21,13.61,12.86,9.43,43.72-1.92,72.56-1.79,73.84,3.33,33.6-6.67,58.54.34,65.15.26.24.75.13,1.43-.31,12.16-7.81,87.61-117.8,96.9-120.18,9.82-2.5,74.7,184.39,74.7,184.39Z"/>
          <path class="cls-2" d="M201.42,482.52s-.81,4-3.02,62.75c-.84,22.44-19.28,40.21-41.74,40.21H44.6c-32.7,0-54.26-34.06-40.26-63.62,37.06-78.25,65.06-99.89,65.06-99.89,0,0,126.65,3.87,132.02,60.55Z"/>
          <path class="cls-11" d="M419.7,34.39l-27.31,40.03-26.8,39.29c-1.63,1.97-3.52,2.66-5.57,2.46-6.43-.61-14.39-9.88-20.59-15.02l-.63-.52c-8.18-6.76-9.33-18.99-2.57-27.16l40.96-49.51h0s12.15-14.69,12.15-14.69c6.76-8.18,18.99-9.33,27.16-2.57l.63.52c8.18,6.76,9.33,18.99,2.57,27.16Z"/>
          <path class="cls-1" d="M392.39,74.42l-26.8,39.29c-1.63,1.97-3.52,2.66-5.57,2.46l17.17-92.2c.04.52,2.96,41.89,15.19,50.46Z"/>
          <path class="cls-5" d="M274.17,379.03c-13.72,18.66-27.53,33.98-39.31,40.37-11.53,6.25-21.3,15.97-29.38,26.74-9.29-4.33-19.89-9.42-30.24-14.45-12.61-6.13-13.09-24.03-.74-30.67.12-.06.24-.13.35-.2,11.57-6.62,23.43-30.01,23.43-30.01l75.89,8.21Z"/>
          <path class="cls-6" d="M146.67,54.44l-7.14,28.85s6.25,2.56,10.26.57c4.01-1.98,7.28-27.86-3.11-29.42Z"/>
          <path class="cls-3" d="M198.3,0h154.05C367.4,0,379.62,12.22,379.62,27.27v338.12c0,15.05-12.22,27.27-27.27,27.27h-154.05c-15.05,0-27.27-12.22-27.27-27.27V27.27C171.03,12.22,183.25,0,198.3,0Z"/>
          <g>
            <path class="cls-11" d="M430.97,185.56l-4.07,1.55-27.38,10.41c-.64.24-1.29.45-1.94.61-9.07,2.36-18.72-2.48-22.12-11.42l-.4-1.05c-3.64-9.59,1.22-20.42,10.81-24.06l25.53-9.7,1.85-.71,4.07-1.55c9.59-3.64,20.41,1.22,24.06,10.81l.4,1.05c3.64,9.59-1.22,20.42-10.81,24.06Z"/>
            <path class="cls-4" d="M408.74,186.19c-4.57,1.73-12.84,4.81-17.27,5.44-1.25.18-3.56-.5-5.71-2.86-1.29-1.41-2.53-3.42-3.44-6.21-.43-1.31-.79-2.62-.94-3.96-.17-1.58-.12-3.15.15-4.72.25-1.41,1.21-2.69,2.61-3.36,0,0,.01,0,.02,0,4.71-2.25,11.05-4.99,16.61-6.51,3.84-1.06,7.73.64,8.95,4l.58,1.57,2.94,8.05c1.22,3.34-.76,7.17-4.49,8.57Z"/>
            <path class="cls-6" d="M408.74,186.19c-4.57,1.73-12.84,4.81-17.27,5.44-1.25.18-3.56-.5-5.71-2.86-.23-.54-.44-1.1-.64-1.71-.43-1.31-.79-2.62-.94-3.96-.17-1.58-.13-3.15.15-4.72.25-1.41,1.21-2.69,2.61-3.36,0,0,.01,0,.02,0,4.7-2.25,11.05-4.99,16.61-6.51,2.46-.68,4.94-.23,6.72,1.07l2.94,8.05c1.22,3.34-.76,7.17-4.49,8.57Z"/>
          </g>
          <g>
            <rect class="cls-11" x="373.46" y="202.52" width="46.07" height="26.66" rx="12.09" ry="12.09" transform="translate(-42.78 111.73) rotate(-15.23)"/>
            <path class="cls-4" d="M399.14,224.8c-3.88,1.04-10.89,2.86-14.57,3.06-1.34.08-4.01-1.06-5.76-4.57-.43-.85-.8-1.84-1.08-2.98-.26-1.04-.45-2.06-.47-3.1-.03-1.23.13-2.43.47-3.61.31-1.07,1.19-1.99,2.39-2.41,0,0,.01,0,.02,0,4.02-1.42,9.43-3.12,14.11-3.93,3.23-.57,6.29.99,7.05,3.65l.55,1.9,1.63,5.71c.75,2.64-1.16,5.46-4.32,6.3Z"/>
            <path class="cls-6" d="M399.14,224.8c-3.88,1.04-10.89,2.86-14.57,3.06-1.34.08-4.01-1.06-5.76-4.57-.24-.97-.41-1.93-.43-2.91-.03-1.22.13-2.43.47-3.61.31-1.06,1.19-1.99,2.39-2.41.01,0,.02,0,.02-.01,4.02-1.42,9.43-3.12,14.11-3.93,2.67-.47,5.24.52,6.47,2.38l1.63,5.71c.75,2.64-1.16,5.46-4.32,6.3Z"/>
          </g>
          <path class="cls-3" d="M47.75,466.95s43.47,41.63,72.77,57.7l22.19-15.74v23.21s43.63,7.72,57.39,0v-63.3l-122.55-61.43-29.8,59.55Z"/>
          <path class="cls-7" d="M86.72,370.82s-27.6,41.29-55.04,85.44c0,0,57.81,39.77,89.16,51.44l41.11-47.09-5.87,56.68s36.38,13.26,53.27,9.8c0,0-1.07-51.42-1.05-85.11,0,0-100.02-28.03-121.58-71.17Z"/>
          <path class="cls-9" d="M93.5,410.52c.03-3.78,3.13-6.81,6.91-6.78,3.78.04,6.81,3.13,6.78,6.91-.04,3.78-3.13,6.81-6.91,6.78-3.78-.04-6.81-3.13-6.78-6.91Z"/>
          <g>
            <path class="cls-11" d="M432.08,145.09c-.15.06-.3.11-.46.16l-27.68,7.11c-12.17,3.13-24.76-3.46-27.98-14.64l-1.65-5.73c-3.09-10.73,3.55-21.95,14.86-25.59l9.14-2.35,18.55-4.76c12.17-3.13,24.76,3.46,27.98,14.64l1.65,5.73c3.04,10.59-3.37,21.64-14.41,25.44Z"/>
            <path class="cls-4" d="M419.4,137.36l-13.45,6.06s-.04,0-.08.02c-.54.15-1.09.26-1.63.34-.23.04-.46.06-.68.09-.1.01-.19.01-.29,0-1.48-.05-2.5-1.62-1.86-3.02,1.27-2.77,1.62-5.97.76-9.12l-.32-1.17s0-.03-.01-.04l-1.04-3.82c-.83-3.04-2.58-5.59-4.88-7.43-.28-.23-.56-.44-.85-.64-2.66-1.84-1.98-6.01,1.13-6.88.03,0,.06-.01.08-.02l14.76-2.23c3.65-.99,7.16,1.82,8.16,5.47l1.19,4.35,2.52,9.27c.99,3.65.12,7.78-3.52,8.77Z"/>
            <path class="cls-6" d="M419.4,137.36l-13.45,6.06s-.04,0-.08.02c-.32.06-1.3.23-2.59.43-1.48-.05-2.5-1.62-1.86-3.02,1.27-2.77,1.62-5.97.76-9.12l-.32-1.17s0-.03-.01-.04l-1.04-3.82c-.83-3.04-2.58-5.59-4.88-7.43.48-.7,1.19-1.25,2.12-1.51.02,0,.06-.01.08-.02l14.76-2.23c3.07-.84,6.05,1.03,7.51,3.81l2.52,9.27c.99,3.65.12,7.78-3.52,8.77Z"/>
          </g>
          <path class="cls-5" d="M171.03,289.09s-6.04-52.72-11.61-63c-5.57-10.28-10.29-30.87-1.71-46.17,8.57-15.3,11.53-44.74,11.53-44.74,3.33,33.6-6.67,58.54.34,65.15.26.24.75.13,1.43-.31l.02,89.07Z"/>
          <path class="cls-10" d="M368.27,29.51c0-11.26-9.15-20.48-20.33-20.48h-34.18c.11.56.16,1.13.16,1.71v1.44c0,5.05-4.14,9.19-9.19,9.19h-62.06c-5.05,0-9.19-4.14-9.19-9.19v-1.44c0-.58.06-1.16.16-1.71h-34.19c-11.18,0-20.32,9.21-20.32,20.48v332.01c0,11.26,9.15,20.48,20.32,20.48h148.48c11.18,0,20.33-9.21,20.33-20.48V29.51Z"/>
        </g>
      </g>
    </g>
  </g>
</svg>