<?xml version="1.0" encoding="UTF-8"?>
<svg id="Layer_2" xmlns="http://www.w3.org/2000/svg" xmlns:xlink="http://www.w3.org/1999/xlink" viewBox="0 0 385 147">
  <defs>
    <style>
      .cls-1 {
        fill: #fff;
        filter: url(#drop-shadow-1);
      }

      .cls-2 {
        fill: #f6a505;
      }
    </style>
    <filter id="drop-shadow-1" filterUnits="userSpaceOnUse">
      <feOffset dx="3.97" dy="3.97"/>
      <feGaussianBlur result="blur" stdDeviation="2.84"/>
      <feFlood flood-color="#000" flood-opacity=".25"/>
      <feComposite in2="blur" operator="in"/>
      <feComposite in="SourceGraphic"/>
    </filter>
  </defs>
  <g id="Capa_1">
    <path class="cls-1" d="M368.87,12.48c.31.32-7.89-1.79-6.16-2.4-4.08.87-4.82-1.79-5.63-2.15-1.59-1.79-7.19,1.51-7.45-.98,1.94-1.61-6.7-2.23-7.07-.22-1.98,2.45-6.11-.32-6.77.96-3.98.11-2.02.54-2.58,2.28-3.73,1.93,2.41,4.33-2.67,2.44-.98,3.16-9.69,3.26-8,1.74-4.12-.79-6.24.4-8.52-.66.69-1.16-9.27.95-8.79-1.2-4.05,1.69-7.4.86-8.82.13-5.87-1.97-5.15,5.38-8.46,1.45-3.32.27-2.3.96-8.48,1.51-3.64-2.61-2.85,1.7-8.48,1.4-2.3-1.02-2.99,3.03-8.44,1.12-4.06.31-6.41.91-7.83-.56-2.37-.09-5.5-1.98-6.46-2.64,2.28-1.02-4.2.04-6.74-3.17-1.58-2.97-7.01-4.77-6.72-1.44-4.35.41-2.9-4.79-5.82.63-2.34,4.79,1.03,1.83-6.84.93.82,2.92-7.38,5.01-7.52-.98.43-1.87-2.31-2.58-6.67-2.54-1.48-.36-1.17-2.61-6.77-2-3.55,1.11-5.8.31-9-.36-1.43-.82-10.2.39-9.37.43,2.4,5.94-9.03.38-7.42,1.41-2.25,1.75-15.01,4.13-7.31,2.89,1.21,4.06-4.16,1.75-7.29,3.26-5.38-4.27,2.09,3.81-7.36,2.54-.62,1.63-5.46.71-7.24.96-3.98,2.25-1.77-3.65-7.51.38-1.85-2.01-5.93,3.78-7.33,1.16-5.65,5.28-3.41,5.34-4.68,1.92-.71,1.29-5.79-1.67-4.95,1.2-.79-.61-5.49,1.61-8.74-1.18-4.31-1.17-2.11-4.07-9.09-1.3-2.73-2.5-9.23.25-10.5.39-3-.81-7.6-1.6-10.47.62-2.44.04-4.86,2.89-10.47.33-9.57,2.5-9.61-4.93-10.51-.48-.14,1.25-9.08-3.78-7.44-2.01,1.46.66-2.58,1.18-6.52-3.3,2.53-3.38-5.3,2.56-6.74-2.98-.45-2.64-8.45,3.67-7.04-.86-3.61,2.46-1.57,1.09-6.78.99,5.33-1.78-4.18-2.22-7.43,1.08-4.54,2.75-5.6-.57-7.89.28-.91-1.9-4.21.54-6.87.87v110.22c.47.05.92.11,1.33.17,4.78,4.63,7.31.8,7-.08-.63-1.54,4.63,3.12,5.09,2.84-1.19,3.16,6.08-1.35,5.66,2.58,1.37-1,3.49,1.29,6.11.71,3.99.06-.22-1.16,5.92.87,3.27-.5.45.16,6.5.85,1.28-.68,3.77-.53,5.03-.61-.16-.25,3.82-2.3,7.03-1.85-.78-1.94.8-2.15,6.04-.97,5.27-3.84.52.89,6.19-.17,3.9-3.41,3.44-1.76,6.27-.39,4.58-.34,9.63-2.3,10.22-2.83-.6.1-1.28.2-2.1.35,1.78-.54,2.35-.58,2.1-.35,2.05-.35,3.15-.73,5.51-3.26.66-2.7,4.46-.78,8.32-2.51,2.71-1.41,7.62-3.08,6.63-.21-3.34,3.5,10.36,7.16,6.79.7,7.14,2.4,3.77,2.14,6.48,1.07,10.86-2.31,4.48,2.59,7.78,2.48,13.79,1.74-2.66-.07,6.59,3.36,1.5-7,5.9,3.4,7.06,2.78,1.78,1.98,6.49-1.24,9.21.92,3.63-.82,9.55,1.52,9.9-1.03,9.42.16,7.3-.66,9.7-2.13,3.35-2.02,8.4-2.65,8.6-2.38,1.18-.56,6.18,1.65,6.53-2.18,1.92.16,4.43-1.73,6.36-1.9,3.3-1.98,1.81,1.21,7.36-.68,1.63,3.08,12.12,2.62,8.18.83,4.28-.07,8.23.91,6.31,1.85,2.54-.56,5.34,2.35,6.05,4.32,1.27,3.73,3.29,2.21,5.88,2.12,3.13,1.78,3.09-.54,6.01,1.76,3.97,1.61,6.05,2.03,8.17,1.85,2-.4,2.56-1.84,8.47-1.82,3.88-4.45,1.99-3.37,7.33-.2,7.88,2.85,5.13-.67,7.27,1.11,4.34-.38,1.97,3.17,7.04.58,2.17,2.53,5.39-2.46,8.93-1.28,2.71,6.29,4.01-.15,9.6-2.42,6.89,1.89,9.2.37,8.53-2.45-1.94-.56,4.59-.11,8.19-2.84,7,1.84.93-.62,8.2-3.42,3.54-1.77,5.99-.16,8.27-3.26,5.66-1,6.5-3.66,8.39-2.35,3.24-2.61,6.62-2.07,8.57-.7,6.8,6.44,10.7.87,9.96,1.15,2.5-1.22,4.57.26,9.49,2.01.33,5.43,7.51.76,9.4,2.01,5.02-.09,5.63.16,7.11.58V12.18c-.88.09-1.84.19-2.9.29Z"/>
    <g>
      <path class="cls-2" d="M78.47,56.42c0-8.18,5.63-12.84,12.16-12.84,3.6,0,6.23,1.5,7.96,3.23l-3.38,4.13c-1.2-1.05-2.4-1.8-4.35-1.8-3.3,0-5.78,2.63-5.78,7.06s2.03,7.13,6.38,7.13c.68,0,1.43-.15,1.88-.45v-3.38h-3.6v-5.26h9.31v11.64c-1.73,1.65-4.8,3-8.26,3-6.83,0-12.31-4.13-12.31-12.46Z"/>
      <path class="cls-2" d="M103.78,44.03h15.77v5.41h-9.31v3.83h7.96v5.41h-7.96v4.35h9.68v5.41h-16.14v-24.4Z"/>
      <path class="cls-2" d="M124.65,44.03h9.23c5.26,0,9.76,1.8,9.76,7.88s-4.5,8.33-9.76,8.33h-2.78v8.18h-6.46v-24.4ZM133.44,55.14c2.55,0,3.9-1.13,3.9-3.23s-1.35-2.78-3.9-2.78h-2.33v6.01h2.33ZM132.72,58.56l4.35-4.28,7.92,14.15h-7.21l-5.07-9.87Z"/>
      <path class="cls-2" d="M148.3,44.03h15.77v5.41h-9.31v3.83h7.96v5.41h-7.96v4.35h9.68v5.41h-16.14v-24.4Z"/>
      <path class="cls-2" d="M169.18,44.03h6.61l5.41,10.89,2.33,5.48h.15c-.3-2.63-.83-6.31-.83-9.31v-7.06h6.16v24.4h-6.61l-5.41-10.92-2.33-5.44h-.15c.3,2.78.83,6.31.83,9.31v7.06h-6.16v-24.4Z"/>
      <path class="cls-2" d="M193.36,56.42c0-8.18,5.63-12.84,11.79-12.84,3.23,0,5.86,1.5,7.58,3.23l-3.38,4.13c-1.2-1.05-2.4-1.8-4.05-1.8-2.85,0-5.33,2.63-5.33,7.06s2.1,7.13,5.25,7.13c1.88,0,3.38-.98,4.43-2.1l3.38,4.05c-2.06,2.4-4.88,3.6-8.03,3.6-6.23,0-11.64-4.13-11.64-12.46Z"/>
      <path class="cls-2" d="M216.41,44.03h6.46v24.4h-6.46v-24.4Z"/>
      <path class="cls-2" d="M232.63,44.03h7.81l7.43,24.4h-6.83l-2.78-11.86c-.6-2.33-1.2-5.29-1.8-7.73h-.15c-.53,2.48-1.13,5.41-1.73,7.73l-2.78,11.86h-6.61l7.43-24.4ZM230.52,58.26h11.94v4.99h-11.94v-4.99Z"/>
      <path class="cls-2" d="M257.33,44.03h7.21c7.43,0,12.54,3.45,12.54,12.09s-5.1,12.31-12.16,12.31h-7.58v-24.4ZM264.16,63.25c3.53,0,6.31-1.43,6.31-7.13s-2.78-6.91-6.31-6.91h-.38v14.04h.38Z"/>
      <path class="cls-2" d="M281.43,44.03h15.77v5.41h-9.31v3.83h7.96v5.41h-7.96v4.35h9.68v5.41h-16.14v-24.4Z"/>
    </g>
    <g>
      <path class="cls-2" d="M75.91,85.19c0-7.57,4.32-11.82,10.69-11.82s10.69,4.28,10.69,11.82-4.32,12.03-10.69,12.03-10.69-4.46-10.69-12.03ZM91.05,85.19c0-4.18-1.7-6.58-4.46-6.58s-4.46,2.41-4.46,6.58,1.7,6.79,4.46,6.79,4.46-2.62,4.46-6.79Z"/>
      <path class="cls-2" d="M101.39,73.79h8.42c5.02,0,9.34,1.84,9.34,7.64s-4.39,8.07-9.2,8.07h-2.48v7.29h-6.09v-23ZM109.66,84.69c2.41,0,3.54-1.2,3.54-3.26s-1.34-2.83-3.68-2.83h-2.05v6.09h2.19Z"/>
      <path class="cls-2" d="M122.9,73.79h14.86v5.1h-8.78v3.61h7.5v5.1h-7.5v4.1h9.13v5.1h-15.22v-23Z"/>
      <path class="cls-2" d="M142.57,73.79h8.7c4.95,0,9.2,1.7,9.2,7.43s-4.25,7.86-9.2,7.86h-2.62v7.71h-6.09v-23ZM150.85,84.27c2.41,0,3.68-1.06,3.68-3.04s-1.27-2.62-3.68-2.62h-2.19v5.66h2.19ZM150.18,87.49l4.1-4.03,7.47,13.34h-6.79l-4.78-9.31Z"/>
      <path class="cls-2" d="M168.61,73.79h7.36l7.01,23h-6.44l-2.62-11.18c-.57-2.19-1.13-4.99-1.7-7.29h-.14c-.5,2.34-1.06,5.1-1.63,7.29l-2.62,11.18h-6.23l7.01-23ZM166.63,87.21h11.25v4.71h-11.25v-4.71Z"/>
      <path class="cls-2" d="M183.83,85.47c0-7.71,5.31-12.1,11.11-12.1,3.04,0,5.52,1.42,7.15,3.04l-3.19,3.89c-1.13-.99-2.26-1.7-3.82-1.7-2.69,0-5.02,2.48-5.02,6.65s1.98,6.72,4.95,6.72c1.77,0,3.18-.92,4.18-1.98l3.18,3.82c-1.95,2.26-4.6,3.4-7.57,3.4-5.87,0-10.97-3.89-10.97-11.75Z"/>
      <path class="cls-2" d="M205.55,73.79h6.09v23h-6.09v-23Z"/>
      <path class="cls-2" d="M215.74,85.19c0-7.57,4.32-11.82,10.69-11.82s10.69,4.28,10.69,11.82-4.32,12.03-10.69,12.03-10.69-4.46-10.69-12.03ZM230.89,85.19c0-4.18-1.7-6.58-4.46-6.58s-4.46,2.41-4.46,6.58,1.7,6.79,4.46,6.79,4.46-2.62,4.46-6.79Z"/>
      <path class="cls-2" d="M241.22,73.79h6.23l5.1,10.26,2.19,5.17h.14c-.28-2.48-.78-5.94-.78-8.78v-6.65h5.8v23h-6.23l-5.1-10.3-2.19-5.13h-.14c.28,2.62.78,5.94.78,8.78v6.65h-5.8v-23Z"/>
      <path class="cls-2" d="M265,73.79h14.86v5.1h-8.78v3.61h7.5v5.1h-7.5v4.1h9.13v5.1h-15.22v-23Z"/>
      <path class="cls-2" d="M283.25,93.93l3.47-4.18c1.63,1.31,3.68,2.23,5.38,2.23,1.84,0,2.62-.6,2.62-1.63,0-1.1-1.17-1.45-3.11-2.23l-2.87-1.2c-2.48-.99-4.64-3.08-4.64-6.4,0-3.93,3.54-7.15,8.56-7.15,2.62,0,5.52.99,7.64,3.08l-3.04,3.82c-1.56-1.1-2.9-1.66-4.6-1.66-1.49,0-2.41.53-2.41,1.56,0,1.1,1.31,1.49,3.4,2.3l2.8,1.1c2.87,1.13,4.49,3.11,4.49,6.3,0,3.89-3.26,7.36-8.99,7.36-2.9,0-6.23-1.06-8.7-3.29Z"/>
    </g>
  </g>
</svg>