<?xml version="1.0" encoding="UTF-8"?>
<svg id="Layer_2" xmlns="http://www.w3.org/2000/svg" xmlns:xlink="http://www.w3.org/1999/xlink" viewBox="0 0 184.85 70.62">
  <defs>
    <style>
      .cls-1 {
        fill: #fff;
      }

      .cls-2 {
        filter: url(#drop-shadow-1);
      }
    </style>
    <filter id="drop-shadow-1" filterUnits="userSpaceOnUse">
      <feOffset dx="9.37" dy="3.12"/>
      <feGaussianBlur result="blur" stdDeviation="3.12"/>
      <feFlood flood-color="#000" flood-opacity=".3"/>
      <feComposite in2="blur" operator="in"/>
      <feComposite in="SourceGraphic"/>
    </filter>
  </defs>
  <g id="Capa_1">
    <g class="cls-2">
      <g>
        <g>
          <path class="cls-1" d="M40.48,19.12c2.96,0,5.68,1.36,8.12,3.47l2.06-2.49c-2.21-2.21-5.91-4.18-10.14-4.18-5.87,0-9.9,3.43-9.9,8.64,0,5.77,4.41,7.46,8.92,8.68,3.75,1.03,7.04,2.25,7.04,6,0,4.79-3.43,5.77-6.57,5.77-3.71,0-7.04-1.69-8.49-2.67l-1.55,3.05c1.27,1.03,5.45,2.86,9.95,2.86,6.57,0,10.51-3.29,10.51-9.15s-4.41-7.56-8.73-8.92c-4.04-1.22-7.23-2.3-7.23-6.01,0-3.94,3.38-5.07,6.01-5.07Z"/>
          <path class="cls-1" d="M73.24,24.38h-3.61v15.49c0,2.72-2.91,5.63-6.19,5.63-4.13,0-4.83-2.67-4.83-6.2v-14.92h-3.66v15.96c0,5.4,2.53,8.03,7.56,8.03,2.82,0,5.63-1.17,7.37-3.85h.09l.38,3.19h3.24l-.33-3.43v-19.9Z"/>
          <path class="cls-1" d="M82.63,27.76l-.42-3.38h-3.15l.28,3.19v20.13h3.62v-14.88c.14-3.14,2.06-5.87,5.07-5.87,1.18,0,2.25.47,3.05.89l1.13-3.24c-.89-.56-2.25-.89-3.71-.89-2.68,0-4.74,1.41-5.87,4.04Z"/>
          <path class="cls-1" d="M107.72,43.1c-.28.16-.66.37-1.11.64-.44.26-.93.5-1.47.73-.54.23-1.11.42-1.73.59-1.06.29-2.01.35-2.88.04-.37-.13-.68-.35-.95-.65-.27-.31-.49-.75-.66-1.3-.18-.56-.26-1.28-.26-2.15v-13.65h7.42v-3.45h-7.42c0-.62-.05-1.25-.12-1.87-.08-.67-.24-1.35-.47-2.02-.23-.66-.54-1.28-.91-1.86-.39-.59-.9-1.12-1.54-1.59l-.3-.22-2.17,2.1.3.31c.58.61,1.02,1.34,1.31,2.19.3.86.45,1.9.45,3.1v16.95c0,1.42.16,2.62.49,3.59.34.99.79,1.78,1.34,2.36.56.6,1.22,1.03,1.96,1.29.72.25,1.49.37,2.28.37.84,0,1.71-.11,2.57-.32.85-.21,1.65-.47,2.38-.77.75-.31,1.39-.62,1.95-.94.55-.31.97-.58,1.24-.78l.32-.24-1.65-2.66-.36.2Z"/>
          <rect class="cls-1" x="112.48" y="24.38" width="3.66" height="23.33"/>
          <path class="cls-1" d="M114.32,15.27c-1.41,0-2.44,1.08-2.44,2.44,0,1.45.99,2.49,2.39,2.49s2.49-1.03,2.49-2.49c0-1.36-1.08-2.44-2.44-2.44Z"/>
          <path class="cls-1" d="M137.05,23.05c-1.29-.3-3.04-.46-5.18-.46-1.73,0-3.3.32-4.68.95-1.38.63-2.57,1.52-3.53,2.63-.95,1.11-1.7,2.44-2.21,3.95-.51,1.5-.77,3.15-.77,4.91,0,2.16.29,4.03.86,5.55.58,1.53,1.35,2.8,2.31,3.77.96.98,2.1,1.7,3.38,2.16,1.27.45,2.6.68,3.96.68.85,0,1.62-.07,2.31-.22.68-.15,1.3-.34,1.83-.56.54-.23.98-.44,1.34-.65.08-.05.16-.09.23-.13v.86c0,2.57-.57,4.39-1.71,5.42-1.14,1.04-3.04,1.57-5.63,1.57-1.2,0-2.42-.12-3.61-.37-1.18-.24-2.13-.53-2.8-.86l-.43-.21-.74,3.56.31.11c.87.32,1.92.6,3.12.84,1.2.24,2.57.36,4.07.36,3.64,0,6.41-.81,8.23-2.42,1.84-1.62,2.78-4.33,2.78-8.05v-22.42l-.25-.09c-.83-.28-1.9-.58-3.19-.88ZM136.87,26.68v15.18c-.54.45-1.3.87-2.25,1.23-1.03.39-2.18.59-3.42.59-.83,0-1.66-.16-2.47-.47-.79-.31-1.51-.8-2.13-1.48-.63-.68-1.14-1.58-1.53-2.67-.4-1.09-.6-2.43-.6-3.97,0-1.33.17-2.57.51-3.67.34-1.09.84-2.05,1.48-2.83.64-.78,1.42-1.4,2.32-1.82.9-.43,1.96-.64,3.12-.64,1.44,0,2.56.07,3.33.21.64.11,1.18.23,1.63.36Z"/>
          <path class="cls-1" d="M164.76,25.22c-3.01-1.13-6.24-1.5-7.7-1.5-7.79,0-11.78,5.02-11.78,13.33,0,6.81,2.77,11.31,9.29,11.31,3.66,0,5.68-1.78,6.85-3.47l.14.05.28,2.77h3.29l-.37-4.08v-18.4ZM161.15,40.29c0,2.63-2.16,5.35-6.1,5.35-4.93,0-6.15-4.36-6.15-8.45,0-6.01,1.92-10.61,7.55-10.61,1.97,0,3.85.42,4.7.8v12.91Z"/>
          <path class="cls-1" d="M177.62,34.33c-2.67-.8-4.98-1.45-4.98-4.22,0-2.58,2.25-3.61,4.27-3.61,2.4,0,4.27,1.08,5.82,2.53l2.11-2.16c-1.69-1.69-4.46-3.14-7.79-3.14-4.08,0-7.84,2.21-7.84,6.9s3.33,5.82,7.09,6.71c2.72.66,4.83,1.5,4.83,4.22s-2.02,3.99-4.64,3.99-5.02-1.13-6.38-2.07l-1.41,2.63c.99.85,4.04,2.25,7.84,2.25,4.79,0,8.17-2.54,8.17-7.13s-3.71-5.87-7.09-6.9Z"/>
        </g>
        <g>
          <path class="cls-1" d="M1.03,37.28c-.06-.19-.12-.39-.17-.58.05.19.11.39.17.58Z"/>
          <path class="cls-1" d="M.76,36.38c.03.11.07.21.1.32-.03-.11-.06-.22-.09-.32h0Z"/>
          <path class="cls-1" d="M27.45,54.49s0,.02.01.03l.11-.05s0-.01,0-.02l-.12.05Z"/>
          <g>
            <path class="cls-1" d="M4.98,37.38c-.16-.88-.68-3.96-.42-6.58.57-5.87,6.12-16.56,6.12-20.69s-1.18-6.38-1.18-6.38c0,0,2.45,2.57,2.21,6.58-.25,4.01-1.88,7.62-2.62,9.88-.77,2.35-2.77,6.72-3.22,10.66-.37,3.26.26,7.02.26,7.03.4.16.79.29,1.15.39,2.75.75,5.69.76,8.41,1.64.12.04.23.09.35.13.99-2.38,1.97-4.74,2.62-7.09,3.66-13.37,0-24.11-11.57-32.94l-1.75,2.41c2.05,3.74,2.83,7.2,1.46,11.15-1.57,4.57-3.89,6.69-5.69,11.18C.01,27.47-.23,30.53.2,33.62c1.05,1.48,2.96,2.86,4.78,3.76Z"/>
            <path class="cls-1" d="M15.3,48.39c2.58.4,4.72.5,8.07,1.47.63.18,1.16.45,1.62.76,2.03,1.37,2.53,3.64,2.57,3.83h0c-.11-4.28-2.31-8.09-5.69-10.46-1.39-.98-2.97-1.72-4.7-2.14-.58-.14-1.17-.24-1.76-.32-2.23-.31-4.52-.28-6.74-.72-2.41-.47-6.1-2.3-7.63-4.48l-.28.06c.03.11.06.22.09.32.05.19.11.39.17.58.56,1.86,1.31,3.68,2.23,5.39,2.17,4.03,5.29,7.46,9.21,9.41.02.01.04.03.06.04,0,0,0,0,0,0,.98.49,2.01.89,3.1,1.17,2.6.68,5.47-.27,7.81.18.19.04.37.08.55.13.79.24,1.5.68,2.1,1.45l1.36-.55c-.41-1.24-1.25-2.14-2.33-2.82-2.61-1.63-6.69-1.94-9.95-2.44-.78-.12-1.5-.3-2.17-.52-3.5-1.14-5.58-3.31-5.58-3.31,1.42,1.19,3.63,2.03,5.76,2.56.73.18,1.45.32,2.13.43Z"/>
          </g>
        </g>
      </g>
      <g>
        <path class="cls-1" d="M99.43,69.21c-1.29,0-1.94-.78-1.94-2.32v-3.12h.66v3.05c0,1.29.3,1.8,1.28,1.8s1.28-.51,1.28-1.8v-3.05h.65v3.12c0,1.54-.65,2.32-1.93,2.32"/>
        <path class="cls-1" d="M104.89,69.11v-2.52c0-.72-.12-.98-.66-.98-.31,0-.72.12-1.24.35v3.15h-.64v-3.95h.64v.31c.46-.24.88-.41,1.31-.41,1.05,0,1.24.57,1.24,1.53v2.52h-.65Z"/>
        <path class="cls-1" d="M108.72,69.11v-.27c-.24.17-.67.37-1.26.37-.74,0-1.18-.33-1.18-1.12v-.14c0-1.04.71-1.22,1.82-1.22h.59v-.29c0-.68-.14-.83-.93-.83-.44,0-.79.04-1.22.09v-.46c.11-.04.66-.17,1.27-.17,1.32,0,1.52.48,1.52,1.38v2.67h-.62ZM108.69,67.21h-.59c-.83,0-1.17.1-1.17.73v.19c0,.45.27.57.66.57.47,0,.93-.21,1.1-.32v-1.18Z"/>
        <path class="cls-1" d="M111.97,67.37v.08c0,.68.1,1.2,1.19,1.2.44,0,1.01-.05,1.38-.11v.52c-.27.07-.75.16-1.41.16-1.4,0-1.81-.62-1.81-1.9v-.3c0-1.24.55-1.95,1.67-1.95s1.7.7,1.7,2.03v.29h-2.72ZM114.02,66.77c0-.48-.1-1.15-1.02-1.15s-1.03.67-1.03,1.15v.07h2.05v-.07Z"/>
        <path class="cls-1" d="M119.9,69.11v-2.62c0-.55,0-.88-.59-.88-.27,0-.65.13-1,.33.03.19.03.37.03.55v2.62h-.65v-2.62c0-.55,0-.88-.54-.88-.34,0-.74.18-1.03.34v3.15h-.64v-3.95h.64v.31c.32-.24.73-.41,1.18-.41s.72.17.87.42c.46-.3.86-.42,1.22-.42,1.15,0,1.15.82,1.15,1.43v2.62h-.65Z"/>
        <path class="cls-1" d="M123.01,69.21c-.27,0-.64-.05-.88-.11v1.52h-.64v-5.46h.62v.27c.35-.24.77-.37,1.15-.37.91,0,1.43.51,1.43,1.84v.39c0,1.52-.73,1.92-1.67,1.92M124.05,66.9c0-.97-.3-1.27-.89-1.27-.31,0-.56.06-1.03.29v2.64c.32.06.62.11.88.11.63,0,1.03-.22,1.03-1.38v-.39Z"/>
        <path class="cls-1" d="M126.13,65.97v3.14h-.64v-3.95h.63v.32c.37-.29.85-.42,1.41-.42v.57c-.52,0-1.1.14-1.4.34"/>
        <path class="cls-1" d="M128.43,67.37v.08c0,.68.1,1.2,1.19,1.2.44,0,1.01-.05,1.38-.11v.52c-.27.07-.75.16-1.41.16-1.4,0-1.81-.62-1.81-1.9v-.3c0-1.24.55-1.95,1.67-1.95s1.7.7,1.7,2.03v.29h-2.72ZM130.48,66.77c0-.48-.1-1.15-1.02-1.15s-1.03.67-1.03,1.15v.07h2.05v-.07Z"/>
        <path class="cls-1" d="M133.1,69.21c-.55,0-1.16-.11-1.29-.16v-.5c.24.02.8.1,1.27.1.68,0,.85-.19.85-.53s-.12-.46-.8-.75l-.29-.12c-.76-.32-1.08-.65-1.08-1.21,0-.66.44-.98,1.43-.98.53,0,1.05.09,1.19.14v.48c-.42-.04-.89-.07-1.16-.07-.57,0-.81.07-.81.43,0,.31.13.44.69.68l.29.12c.92.41,1.19.65,1.19,1.26,0,.57-.3,1.1-1.47,1.1"/>
        <path class="cls-1" d="M137.51,69.11v-.27c-.24.17-.67.37-1.26.37-.74,0-1.18-.33-1.18-1.12v-.14c0-1.04.71-1.22,1.82-1.22h.59v-.29c0-.68-.14-.83-.93-.83-.44,0-.79.04-1.22.09v-.46c.11-.04.66-.17,1.27-.17,1.32,0,1.52.48,1.52,1.38v2.67h-.62ZM137.48,67.21h-.59c-.83,0-1.17.1-1.17.73v.19c0,.45.27.57.66.57.47,0,.93-.21,1.1-.32v-1.18Z"/>
        <path class="cls-1" d="M142.41,67.32v1.89h-.82v-5.91h2.15c1.31,0,1.94.64,1.94,1.95s-.63,2.08-1.94,2.08h-1.32ZM143.73,66.53c.76,0,1.1-.49,1.1-1.28s-.34-1.16-1.1-1.16h-1.32v2.45h1.32Z"/>
        <path class="cls-1" d="M149.02,67.07h-1.49v2.13h-.83v-5.91h2.21c1.3,0,1.94.55,1.94,1.85,0,.9-.32,1.44-1,1.71l1.04,2.35h-.91l-.95-2.13ZM148.91,64.07h-1.38v2.22h1.39c.8,0,1.08-.45,1.08-1.13,0-.73-.35-1.08-1.08-1.08"/>
        <path class="cls-1" d="M151.69,66.28c0-1.96.53-3.08,2.35-3.08s2.36,1.12,2.36,3.08-.53,3.02-2.36,3.02-2.35-1.04-2.35-3.02M155.54,66.28c0-1.46-.28-2.28-1.5-2.28s-1.5.81-1.5,2.28.27,2.22,1.5,2.22,1.5-.7,1.5-2.22"/>
        <polygon class="cls-1" points="157.52 63.29 158.91 63.29 160.43 68.03 161.96 63.29 163.33 63.29 163.33 69.2 162.51 69.2 162.51 64.29 162.38 64.29 160.86 68.98 159.99 68.98 158.47 64.29 158.34 64.29 158.34 69.2 157.52 69.2 157.52 63.29"/>
        <rect class="cls-1" x="164.72" y="63.29" width=".83" height="5.91"/>
        <path class="cls-1" d="M169.25,66.15h1.64v2.94s-1.21.21-1.93.21c-1.81,0-2.32-1.11-2.32-3.05s.54-3.05,2.29-3.05c.89,0,1.96.24,1.96.24l-.03.72s-1.04-.15-1.81-.15c-1.24,0-1.55.65-1.55,2.24s.26,2.25,1.53,2.25c.45,0,1.03-.09,1.06-.09v-1.51h-.83v-.74Z"/>
        <path class="cls-1" d="M173.12,63.29h1.7l1.5,5.91h-.83l-.38-1.32h-2.3l-.37,1.33h-.83l1.52-5.91ZM172.97,67.08h1.95l-.76-3.02h-.42l-.78,3.02Z"/>
        <path class="cls-1" d="M180.54,64.13s-1.19-.14-1.69-.14c-.77,0-1.16.25-1.16.83,0,.63.35.77,1.35,1.01,1.2.32,1.68.63,1.68,1.67,0,1.25-.76,1.79-1.96,1.79-.64,0-1.8-.2-1.8-.2l.08-.75s1.1.14,1.7.14c.77,0,1.14-.26,1.14-.96,0-.56-.3-.74-1.22-.96-1.25-.29-1.82-.64-1.82-1.74s.77-1.64,1.99-1.64c.66,0,1.76.2,1.76.2l-.07.75Z"/>
      </g>
    </g>
  </g>
</svg>