<?xml version="1.0" encoding="UTF-8"?>
<svg xmlns="http://www.w3.org/2000/svg" viewBox="0 0 587.56 439.86">
  <defs>
    <style>
      .cls-1 {
        fill: #fff;
      }

      .cls-2 {
        isolation: isolate;
      }

      .cls-3 {
        fill: #616160;
      }

      .cls-4 {
        fill: #14213a;
        mix-blend-mode: multiply;
      }
    </style>
  </defs>
  <g class="cls-2">
    <g id="Layer_2">
      <g id="Capa_1">
        <g>
          <path class="cls-1" d="M7.9,202.15c-4.36,0-7.9-3.54-7.9-7.9v-.94c0-4.36,3.54-7.9,7.9-7.9,2.11,0,4.14.84,5.63,2.34,1.48,1.5,2.32,3.53,2.29,5.64,0,.2,0,.4-.02.6,0,.09,0,.17,0,.26,0,4.36-3.54,7.9-7.9,7.9,0,0,0,0,0,0Z"/>
          <path class="cls-3" d="M7.9,193.31v.94c0-.32.02-.63.02-.94h-.02Z"/>
          <path class="cls-1" d="M293.78,439.86c-77.64,0-150.76-16.28-205.88-45.85C31.22,363.6,0,322.62,0,278.61v-80.59c0-34.98,19.62-68.03,56.79-95.75,5.2-28.25,31.84-54.02,75.49-72.87C176.16,10.44,233.52,0,293.78,0s117.62,10.44,161.5,29.4c43.65,18.85,70.29,44.62,75.49,72.87,37.17,27.71,56.79,60.76,56.79,95.75v80.59c0,44.01-31.22,84.99-87.9,115.39-55.13,29.57-128.24,45.85-205.88,45.85Z"/>
          <path class="cls-4" d="M576.65,220.37c1.99-7.3,3.02-14.76,3.02-22.35,0-34.21-20.89-65.81-56.2-91.32-6.66-55.08-106.94-98.8-229.68-98.8S70.76,51.62,64.1,106.7C28.79,132.21,7.9,163.8,7.9,198.02c0,3.47.22,6.92.64,10.34h0c-.42-3.41-.64-6.86-.64-10.33v80.59c0,84.69,127.99,153.35,285.88,153.35s285.89-68.66,285.89-153.35v-80.59c0,7.6-1.03,15.06-3.02,22.36h0Z"/>
        </g>
      </g>
    </g>
  </g>
</svg>