<?xml version="1.0" encoding="UTF-8"?>
<svg id="Layer_2" xmlns="http://www.w3.org/2000/svg" viewBox="0 0 57.42 84.25">
  <defs>
    <style>
      .cls-1 {
        fill: #eb670a;
      }

      .cls-2 {
        fill: #fff;
      }

      .cls-3 {
        fill: #f6a505;
      }
    </style>
  </defs>
  <g id="Capa_1">
    <g>
      <path class="cls-3" d="M46.85,7.54c1.56-.04,3.03,3.92,3.36,5.15,1.77,6.54-2.42,14.05-9.06,15.75-.62.48-1.99.83-2.72,1.05,1.17-3.55,1.11-8.04,3.75-10.46,4.66-4.27,2.87-7.56,4.67-11.5h0Z"/>
      <path class="cls-1" d="M39.63,1.76l.12.11c-3.04,5.17-1.42,4.61.65,9.27,1.76,3.97-.83,8.1-4.5,9.72-.84-.22-1.57-.55-2.36-.92-.06-.1-.03-.08-.11-.14-4.03-3.07-4.6-8.92-1.91-13.08,1.77-2.73,5.03-4.3,8.12-4.96h0Z"/>
      <path class="cls-3" d="M24.32,0l.31.05c-4.2,7.68,2.44,11.36,2.41,16.55-.04,7.07-7.61,3.79-7.59,11.19-1.95-.81-2.25-1.5-3.72-2.56l-.05-.04c-.09-.42-.73-1.14-.97-1.55-2.29-3.99-1.42-9.34.65-13.24,1.45.93,2.74,2.57,3.97,3.8-1.65-5.58-.32-11.22,4.99-14.2h0Z"/>
      <path class="cls-2" d="M27.14,28.8l.68-.04c5.13-.12,6.54,3.97,8.53,7.78l20.34,38.43c1.71,3.64.37,8.23-3.99,9.11-.91.19-1.88.13-2.81.13l-19.78.02H8.19c-.91,0-1.86.05-2.76-.05-4-.46-6.44-5.04-5.01-8.68.76-1.93,1.88-3.78,2.82-5.63l17.67-35.05c1.56-3.17,2.35-5.11,6.24-6.02h0Z"/>
      <path class="cls-1" d="M27.64,40.34l.46-.03c3.5-.08,4.46,2.71,5.83,5.31l13.89,26.24c1.17,2.48.25,5.62-2.73,6.22-.62.13-1.28.09-1.92.09h-13.5s-14.98.01-14.98.01c-.62,0-1.27.04-1.89-.03-2.73-.32-4.4-3.44-3.42-5.93.52-1.32,1.28-2.58,1.92-3.84l12.07-23.93c1.07-2.16,1.6-3.49,4.26-4.11h0Z"/>
    </g>
  </g>
</svg>