<?xml version="1.0" encoding="UTF-8"?>
<svg xmlns="http://www.w3.org/2000/svg" viewBox="0 0 250.97 482.29">
  <defs>
    <style>
      .cls-1 {
        fill: #2580c3;
      }

      .cls-2 {
        isolation: isolate;
      }

      .cls-3 {
        fill: #1b2a4f;
        mix-blend-mode: multiply;
        opacity: .66;
      }
    </style>
  </defs>
  <g class="cls-2">
    <g id="Layer_2">
      <g id="Capa_1">
        <g>
          <path class="cls-1" d="M226.78,37.24h-63.09c.09-.57.13-1.15.13-1.74v-11.36c0-13.28-10.86-24.14-24.14-24.14h-28.4c-13.28,0-24.14,10.86-24.14,24.14v11.36c0,.59.05,1.17.13,1.74H24.19C10.83,37.24,0,48.07,0,61.43v396.68c0,13.36,10.83,24.19,24.19,24.19h202.59c13.36,0,24.19-10.83,24.19-24.19V61.43c0-13.36-10.83-24.19-24.19-24.19ZM237.58,458.11c0,5.97-4.84,10.8-10.8,10.8H24.19c-5.97,0-10.8-4.84-10.8-10.8V61.43c0-5.97,4.84-10.8,10.8-10.8h202.59c5.97,0,10.8,4.84,10.8,10.8v396.68Z"/>
          <rect class="cls-3" x="27.33" y="65.13" width="196.31" height="389.28" rx="9.62" ry="9.62"/>
        </g>
      </g>
    </g>
  </g>
</svg>