<?xml version="1.0" encoding="UTF-8"?>
<svg id="Layer_2" xmlns="http://www.w3.org/2000/svg" viewBox="0 0 93.69 40.1">
  <defs>
    <style>
      .cls-1 {
        letter-spacing: -.02em;
      }

      .cls-2 {
        letter-spacing: 0em;
      }

      .cls-3 {
        font-family: SourceSansRoman-Regular, 'Source Sans Variable';
        font-size: 14.16px;
        font-variation-settings: 'wght' 400;
      }

      .cls-3, .cls-4 {
        fill: #f6a505;
      }

      .cls-5 {
        letter-spacing: -.01em;
      }

      .cls-6 {
        letter-spacing: -.07em;
      }

      .cls-7 {
        letter-spacing: 0em;
      }
    </style>
  </defs>
  <g id="Capa_1">
    <g>
      <text class="cls-3" transform="translate(0 19.03)"><tspan class="cls-6" x="0" y="0">T</tspan><tspan x="6.66" y="0">o</tspan><tspan class="cls-2" x="14.33" y="0">c</tspan><tspan x="20.65" y="0">a </tspan><tspan class="cls-5" x="30.62" y="0">p</tspan><tspan x="38.28" y="0">a</tspan><tspan class="cls-1" x="45.42" y="0">r</tspan><tspan x="49.99" y="0">a</tspan><tspan class="cls-7" x="0" y="16.99">v</tspan><tspan x="6.56" y="16.99" xml:space="preserve">er  el víde</tspan><tspan class="cls-7" x="62.61" y="16.99">o</tspan></text>
      <g>
        <path class="cls-4" d="M91.65,8.89l-5.36-5.89c-1.06-1.06-2.79-1.06-3.86,0-.34.34-.57.75-.69,1.18-1.07-.82-2.61-.74-3.59.25-.34.34-.57.75-.69,1.18-1.07-.81-2.61-.73-3.59.25-.33.33-.56.73-.68,1.15l-2.53-2.53c-1.06-1.06-2.79-1.06-3.86,0-1.06,1.06-1.06,2.79,0,3.85l9.71,9.71-5.76.9c-1.56.22-2.73,1.57-2.73,3.15,0,1.18.96,2.14,2.14,2.14h13.45c2.1,0,4.07-.82,5.55-2.3l2.24-2.24c1.48-1.48,2.3-3.45,2.3-5.54,0-1.95-.72-3.83-2.04-5.27ZM90.38,18.7l-2.24,2.24c-1.21,1.21-2.82,1.88-4.54,1.88h-13.45c-.39,0-.71-.32-.71-.71,0-.87.65-1.61,1.52-1.74l7.15-1.12c.27-.04.48-.23.57-.48.08-.25.02-.53-.17-.72l-10.7-10.7c-.51-.51-.51-1.33,0-1.85.25-.25.59-.38.92-.38s.66.13.92.38l7.14,7.14c.28.28.73.28,1.01,0,.14-.14.21-.32.21-.5s-.07-.37-.21-.5l-2.91-2.91c-.51-.51-.51-1.33,0-1.84s1.33-.5,1.84,0l2.92,2.92c.28.28.73.28,1.01,0,.14-.14.21-.32.21-.5s-.07-.37-.21-.5l-1.49-1.49c-.51-.51-.51-1.33,0-1.84.5-.5,1.33-.5,1.84,0l1.49,1.49s0,0,0,0h0s0,0,0,0c0,0,0,0,0,0,.28.27.72.26.99-.01.28-.28.28-.73,0-1.01l-.06-.06c-.25-.25-.38-.57-.38-.92s.13-.67.39-.93c.51-.5,1.33-.5,1.81-.02l5.34,5.87c1.07,1.18,1.67,2.71,1.67,4.31,0,1.71-.67,3.32-1.88,4.53Z"/>
        <path class="cls-4" d="M74.57,3.78c-1.04-2.3-3.33-3.78-5.84-3.78-3.54,0-6.42,2.88-6.42,6.42,0,2.51,1.49,4.8,3.78,5.84.1.04.2.06.29.06.27,0,.53-.16.65-.42.16-.36,0-.78-.36-.94-1.79-.81-2.95-2.59-2.95-4.54,0-2.75,2.24-4.99,4.99-4.99,1.95,0,3.73,1.16,4.54,2.95.16.36.58.52.94.36.36-.16.52-.58.36-.94Z"/>
      </g>
    </g>
  </g>
</svg>